<svg width="100" height="104" viewBox="0 0 100 104" fill="none" xmlns="http://www.w3.org/2000/svg">
<path d="M30.1181 8.64685L43.8189 16.557C45.7679 17.6822 46.9685 19.7618 46.9685 22.0123V37.8326C46.9685 40.0831 45.7679 42.1626 43.8189 43.2879L30.1181 51.198C28.1691 52.3233 25.7679 52.3233 23.8189 51.198L10.1181 43.2879C8.16913 42.1626 6.9685 40.0831 6.9685 37.8326V22.0123C6.9685 19.7618 8.16913 17.6822 10.1181 16.557L23.8189 8.64685C25.7679 7.5216 28.1691 7.5216 30.1181 8.64685Z" fill="#F7F7F2"/>
<path fill-rule="evenodd" clip-rule="evenodd" d="M30.9055 1.05492C28.4693 -0.35164 25.4677 -0.351639 23.0315 1.05492L3.93701 12.0791C1.50078 13.4857 0 16.0851 0 18.8982V40.9466C0 43.7598 1.50078 46.3592 3.93701 47.7657L23.0315 58.7899C25.4677 60.1965 28.4693 60.1965 30.9055 58.7899L50 47.7657C52.4362 46.3592 53.937 43.7597 53.937 40.9466V18.8982C53.937 16.0851 52.4362 13.4857 50 12.0791L30.9055 1.05492ZM23.0315 7.28303C25.4677 5.87647 28.4693 5.87647 30.9055 7.28303L44.6063 15.1932C47.0425 16.5997 48.5433 19.1992 48.5433 22.0123V37.8326C48.5433 40.6457 47.0425 43.2451 44.6063 44.6517L30.9055 52.5618C28.4693 53.9684 25.4677 53.9684 23.0315 52.5618L9.33071 44.6517C6.89448 43.2451 5.3937 40.6457 5.3937 37.8326V22.0123C5.3937 19.1992 6.89448 16.5997 9.33071 15.1932L23.0315 7.28303Z" fill="#F7F7F2"/>
<path d="M77.9651 68.3867C78.4537 68.8751 78.8058 69.4842 78.9847 70.1514V70.1523L78.0335 70.4072C78.0994 70.653 78.1341 70.9093 78.1341 71.1709V71.9658H79.1185V73.5557H78.1341V75.1455H79.1185V76.7344H78.1341V78.3242H79.1185V79.9141H78.1341V81.5039H79.1185V83.0938H78.1341V84.6836H79.1185V86.2725H78.1341V87.8623H79.1185V89.4521H78.1341V90.2471C78.1341 90.5087 78.0994 90.765 78.0335 91.0107L78.9847 91.2656C78.8059 91.933 78.4536 92.5417 77.9651 93.0303L77.2698 92.335C77.1347 92.4701 76.9854 92.5929 76.8235 92.7012L76.6585 92.8037L75.97 93.2012L76.4612 94.0527L75.0843 94.8477L74.5931 93.9961L73.2161 94.791L73.7073 95.6426L72.3304 96.4375L71.8392 95.5859L70.4632 96.3809L70.9544 97.2324L69.5775 98.0273L69.0862 97.1758L67.7093 97.9707L68.2005 98.8223L66.8245 99.6172L66.3333 98.7656L64.9564 99.5605L65.4485 100.412L64.0716 101.207L63.5794 100.355L62.2025 101.149L62.6946 102.002L61.3177 102.796L60.8265 101.944L60.138 102.342C59.9114 102.473 59.6718 102.571 59.4261 102.637L59.679 103.587C59.0121 103.765 58.3097 103.766 57.6429 103.587L57.8968 102.637C57.651 102.571 57.4115 102.473 57.1849 102.342L56.4964 101.944L56.0042 102.796L54.6273 102.002H54.6282L55.1204 101.149L53.7435 100.355L53.2513 101.207H53.2503L51.8734 100.412H51.8743L52.3665 99.5605L50.9896 98.7656L50.4974 99.6172L49.1214 98.8223L49.6136 97.9707L48.2366 97.1758L47.7444 98.0273L46.3675 97.2324L46.8597 96.3809L45.4827 95.5859L44.9905 96.4385L43.6136 95.6436L44.1068 94.791L42.7298 93.9961L42.2366 94.8486L40.8597 94.0537L41.3528 93.2012L40.6644 92.8037C40.4378 92.6729 40.2329 92.5149 40.053 92.335L39.3568 93.0303C38.8685 92.5417 38.5159 91.9328 38.3372 91.2656L39.2894 91.0107C39.24 90.8264 39.2075 90.6363 39.1946 90.4424L39.1888 90.2471V89.4521H38.2044V87.8623H39.1888V86.2725H38.2044V84.6836H39.1888V83.0938H38.2044V81.5039H39.1888V79.9141H38.2044V78.3242H39.1888V76.7344H38.2044V75.1455H39.1888V73.5557H38.2044V71.9658H39.1888V71.1709C39.1888 70.9093 39.2235 70.653 39.2894 70.4072L38.3382 70.1523L38.3372 70.1514C38.5161 69.4843 38.8684 68.8751 39.3568 68.3867L40.053 69.083C40.1882 68.9479 40.3375 68.825 40.4993 68.7168L40.6644 68.6143L41.3528 68.2168L40.8607 67.3643L40.8597 67.3633L42.2366 66.5684L42.2376 66.5693L42.7298 67.4219L44.1068 66.627L43.6146 65.7744L43.6136 65.7734L44.9905 64.9785L44.9915 64.9795L45.4827 65.832L46.8597 65.0371L46.3675 64.1846L47.7444 63.3896L48.2366 64.2422L49.6136 63.4473L49.1214 62.5947L50.4974 61.7998L50.9896 62.6523L52.3665 61.8574L51.8743 61.0049L53.2503 60.21L53.2513 60.2109L53.7435 61.0625L55.1204 60.2676L54.6282 59.416L54.6273 59.415L56.0042 58.6211L56.4964 59.4736L57.1849 59.0762C57.4115 58.9453 57.6509 58.8462 57.8968 58.7803L57.6429 57.8301C58.3096 57.6516 59.0123 57.6517 59.679 57.8301L59.4261 58.7812C59.6718 58.8471 59.9114 58.9454 60.138 59.0762L60.8265 59.4736L61.3177 58.6211L62.6946 59.415V59.416L62.2025 60.2676L63.5794 61.0625L64.0716 60.2109V60.21L65.4476 61.0049L64.9564 61.8574L66.3333 62.6523L66.8245 61.7998L68.2005 62.5947L67.7093 63.4473L69.0862 64.2422L69.5775 63.3896L70.9544 64.1846L70.4632 65.0371L71.8401 65.832L72.3304 64.9795L73.7073 65.7744L73.2161 66.627L74.5931 67.4219L75.0843 66.5693L76.4612 67.3643L75.97 68.2168L76.6585 68.6143C76.885 68.7451 77.09 68.9031 77.2698 69.083L77.9651 68.3867Z" stroke="#F7F7F2" stroke-width="1.9685" stroke-dasharray="1.57 1.57"/>
<path d="M87.0079 20.761C87.7387 20.339 88.6392 20.339 89.3701 20.761L97.2365 25.3027C97.9674 25.7247 98.4176 26.5045 98.4176 27.3484V36.4318C98.4176 37.2758 97.9674 38.0556 97.2365 38.4775L89.3701 43.0192C88.6392 43.4412 87.7387 43.4412 87.0079 43.0192L79.1414 38.4775C78.4105 38.0556 77.9603 37.2758 77.9603 36.4318V27.3484C77.9603 26.5045 78.4105 25.7247 79.1414 25.3027L87.0079 20.761Z" fill="#F7F7F2"/>
</svg>
