<svg width="507" height="322" viewBox="0 0 507 322" fill="none" xmlns="http://www.w3.org/2000/svg">
<g clip-path="url(#clip0_382_496)">
<g clip-path="url(#clip1_382_496)">
<path d="M592 322H-4V43.0352C52.7611 105.89 135.223 145.443 227 145.443C333.086 145.443 426.724 92.5962 482.611 12H592V322Z" fill="#F7F7F2"/>
<path d="M596 322H0V50.2344C56.7611 111.467 139.223 150 231 150C337.086 150 430.724 98.5163 486.611 20H596V322Z" fill="#141414"/>
<path d="M483 10C483 4.47715 487.477 0 493 0H506.607C506.824 0 507 0.17615 507 0.393443V10H483V10Z" fill="#FBFBF8"/>
<path d="M123.118 188.647L136.819 196.557C138.768 197.682 139.969 199.762 139.969 202.012V217.833C139.969 220.083 138.768 222.163 136.819 223.288L123.118 231.198C121.169 232.323 118.768 232.323 116.819 231.198L103.118 223.288C101.169 222.163 99.9685 220.083 99.9685 217.833V202.012C99.9685 199.762 101.169 197.682 103.118 196.557L116.819 188.647C118.768 187.522 121.169 187.522 123.118 188.647Z" fill="#F7F7F2"/>
<path fill-rule="evenodd" clip-rule="evenodd" d="M123.906 181.055C121.469 179.648 118.468 179.648 116.031 181.055L96.937 192.079C94.5008 193.486 93 196.085 93 198.898V220.947C93 223.76 94.5008 226.359 96.937 227.766L116.031 238.79C118.468 240.196 121.469 240.196 123.906 238.79L143 227.766C145.436 226.359 146.937 223.76 146.937 220.947V198.898C146.937 196.085 145.436 193.486 143 192.079L123.906 181.055ZM116.031 187.283C118.468 185.876 121.469 185.876 123.906 187.283L137.606 195.193C140.043 196.6 141.543 199.199 141.543 202.012V217.833C141.543 220.646 140.043 223.245 137.606 224.652L123.906 232.562C121.469 233.968 118.468 233.968 116.031 232.562L102.331 224.652C99.8945 223.245 98.3937 220.646 98.3937 217.833V202.012C98.3937 199.199 99.8945 196.6 102.331 195.193L116.031 187.283Z" fill="#F7F7F2"/>
<path d="M170.965 248.387C171.454 248.875 171.806 249.484 171.985 250.151V250.152L171.034 250.407C171.099 250.653 171.134 250.909 171.134 251.171V251.966H172.118V253.556H171.134V255.146H172.118V256.734H171.134V258.324H172.118V259.914H171.134V261.504H172.118V263.094H171.134V264.684H172.118V266.272H171.134V267.862H172.118V269.452H171.134V270.247C171.134 270.509 171.099 270.765 171.034 271.011L171.985 271.266C171.806 271.933 171.454 272.542 170.965 273.03L170.27 272.335C170.135 272.47 169.985 272.593 169.824 272.701L169.659 272.804L168.97 273.201L169.461 274.053L168.084 274.848L167.593 273.996L166.216 274.791L166.707 275.643L165.33 276.438L164.839 275.586L163.463 276.381L163.954 277.232L162.577 278.027L162.086 277.176L160.709 277.971L161.201 278.822L159.825 279.617L159.333 278.766L157.956 279.561L158.449 280.412L157.072 281.207L156.579 280.355L155.202 281.149L155.695 282.002L154.318 282.796L153.826 281.944L153.138 282.342C152.911 282.473 152.672 282.571 152.426 282.637L152.679 283.587C152.012 283.765 151.31 283.766 150.643 283.587L150.897 282.637C150.651 282.571 150.411 282.473 150.185 282.342L149.496 281.944L149.004 282.796L147.627 282.002H147.628L148.12 281.149L146.743 280.355L146.251 281.207H146.25L144.873 280.412H144.874L145.367 279.561L143.99 278.766L143.497 279.617L142.121 278.822L142.614 277.971L141.237 277.176L140.744 278.027L139.367 277.232L139.86 276.381L138.483 275.586L137.991 276.438L136.614 275.644L137.107 274.791L135.73 273.996L135.237 274.849L133.86 274.054L134.353 273.201L133.664 272.804C133.438 272.673 133.233 272.515 133.053 272.335L132.357 273.03C131.868 272.542 131.516 271.933 131.337 271.266L132.289 271.011C132.24 270.826 132.207 270.636 132.195 270.442L132.189 270.247V269.452H131.204V267.862H132.189V266.272H131.204V264.684H132.189V263.094H131.204V261.504H132.189V259.914H131.204V258.324H132.189V256.734H131.204V255.146H132.189V253.556H131.204V251.966H132.189V251.171C132.189 250.909 132.224 250.653 132.289 250.407L131.338 250.152L131.337 250.151C131.516 249.484 131.868 248.875 132.357 248.387L133.053 249.083C133.188 248.948 133.337 248.825 133.499 248.717L133.664 248.614L134.353 248.217L133.861 247.364L133.86 247.363L135.237 246.568L135.238 246.569L135.73 247.422L137.107 246.627L136.615 245.774L136.614 245.773L137.991 244.979L137.992 244.979L138.483 245.832L139.86 245.037L139.367 244.185L140.744 243.39L141.237 244.242L142.614 243.447L142.121 242.595L143.497 241.8L143.99 242.652L145.367 241.857L144.874 241.005L146.25 240.21L146.251 240.211L146.743 241.062L148.12 240.268L147.628 239.416L147.627 239.415L149.004 238.621L149.496 239.474L150.185 239.076C150.412 238.945 150.651 238.846 150.897 238.78L150.643 237.83C151.31 237.652 152.012 237.652 152.679 237.83L152.426 238.781C152.672 238.847 152.911 238.945 153.138 239.076L153.826 239.474L154.318 238.621L155.695 239.415V239.416L155.202 240.268L156.579 241.062L157.072 240.211V240.21L158.448 241.005L157.956 241.857L159.333 242.652L159.825 241.8L161.201 242.595L160.709 243.447L162.086 244.242L162.577 243.39L163.954 244.185L163.463 245.037L164.84 245.832L165.33 244.979L166.707 245.774L166.216 246.627L167.593 247.422L168.084 246.569L169.461 247.364L168.97 248.217L169.659 248.614C169.885 248.745 170.09 248.903 170.27 249.083L170.965 248.387Z" stroke="#F7F7F2" stroke-width="1.9685" stroke-dasharray="1.57 1.57"/>
<path d="M180.008 200.761C180.739 200.339 181.639 200.339 182.37 200.761L190.236 205.303C190.967 205.725 191.418 206.504 191.418 207.348V216.432C191.418 217.276 190.967 218.056 190.236 218.478L182.37 223.019C181.639 223.441 180.739 223.441 180.008 223.019L172.141 218.478C171.411 218.056 170.96 217.276 170.96 216.432V207.348C170.96 206.504 171.411 205.725 172.141 205.303L180.008 200.761Z" fill="#F7F7F2"/>
</g>
</g>
<defs>
<clipPath id="clip0_382_496">
<rect width="507" height="322" fill="white"/>
</clipPath>
<clipPath id="clip1_382_496">
<rect width="511" height="322" fill="white" transform="translate(-4)"/>
</clipPath>
</defs>
</svg>
