<svg width="507" height="322" viewBox="0 0 507 322" fill="none" xmlns="http://www.w3.org/2000/svg">
<g clip-path="url(#clip0_382_496)">
<g clip-path="url(#clip1_382_496)">
<path d="M592 322H-4V43.0352C52.7611 105.89 135.223 145.443 227 145.443C333.086 145.443 426.724 92.5962 482.611 12H592V322Z" fill="#F7F7F2"/>
<path d="M596 322H0V50.2344C56.7611 111.467 139.223 150 231 150C337.086 150 430.724 98.5163 486.611 20H596V322Z" fill="#141414"/>
<path d="M483 10C483 4.47715 487.477 0 493 0H506.607C506.824 0 507 0.17615 507 0.393443V10H483V10Z" fill="#FBFBF8"/>
</g>
</g>
<defs>
<clipPath id="clip0_382_496">
<rect width="507" height="322" fill="white"/>
</clipPath>
<clipPath id="clip1_382_496">
<rect width="511" height="322" fill="white" transform="translate(-4)"/>
</clipPath>
</defs>
</svg>
